<svg width="250" height="300" viewBox="0 0 250 300" fill="none" xmlns="http://www.w3.org/2000/svg">
<g clip-path="url(#clip0_10_367)">
<path d="M1.78022 143.486C2.69519 145.014 3.93408 146.323 5.40961 147.32C6.88515 148.318 8.56144 148.98 10.3204 149.259C12.0794 149.539 13.8783 149.429 15.5903 148.938C17.3024 148.447 18.886 147.587 20.2296 146.418L57.7849 167.957L56.3852 145.503L20.9367 128.492C18.823 126.364 16.0025 125.087 13.0097 124.9C10.0169 124.714 7.05968 125.632 4.6984 127.48C2.33711 129.328 0.735836 131.978 0.197998 134.928C-0.339841 137.878 0.223126 140.923 1.78022 143.486Z" fill="#FFB8B8"/>
<path d="M110.506 229.772C99.3663 245.364 99.7648 271.45 102.873 300H155.544L157.834 294.657L160.887 300H210.505C210.505 300 206.688 227.482 199.818 225.192C192.948 222.902 110.506 229.772 110.506 229.772Z" fill="#E6E6E6"/>
<path d="M155.544 66.8681C170.299 66.8681 182.261 54.9065 182.261 40.151C182.261 25.3955 170.299 13.4338 155.544 13.4338C140.788 13.4338 128.827 25.3955 128.827 40.151C128.827 54.9065 140.788 66.8681 155.544 66.8681Z" fill="#FFB8B8"/>
<path d="M174.854 73.7998L180.079 83.8138L216.216 99.9232L206.717 191.85L202.719 201.369L204.879 209.636L199.671 215.737C204.899 220.467 205.563 225.418 202.719 230.54L186.078 234.352C186.078 234.352 93.5481 242.58 101.346 228.245C109.867 212.583 112.036 166.326 93.2267 141.608C77.2577 120.623 89.5177 93.3923 89.5177 93.3923L127.397 82.0722L141.329 73.7998L174.854 73.7998Z" fill="#163B30"/>
<path d="M167.405 1.01451C167.531 0.748873 167.733 0.526824 167.985 0.376881C168.238 0.226938 168.53 0.155945 168.823 0.173024C156.592 -0.558635 143.708 0.866993 133.475 7.60743C130.996 9.24043 128.658 11.1882 125.961 12.3728C125.833 12.43 125.723 12.5192 125.64 12.6317C125.558 12.7441 125.506 12.8761 125.489 13.0147C125.472 13.1532 125.492 13.2938 125.545 13.4226C125.599 13.5515 125.685 13.6642 125.795 13.7499L126.092 13.9823C126.209 14.074 126.298 14.196 126.351 14.335C126.403 14.474 126.416 14.6247 126.389 14.7707C126.362 14.9168 126.295 15.0525 126.196 15.1633C126.097 15.274 125.969 15.3555 125.827 15.3988C125.679 15.4439 125.547 15.5305 125.446 15.6482C125.346 15.766 125.281 15.91 125.26 16.0634C125.238 16.2168 125.261 16.3731 125.325 16.5139C125.39 16.6547 125.493 16.7742 125.623 16.8583L127.894 18.3259C128.008 18.3985 128.102 18.4986 128.168 18.6172C128.234 18.7357 128.268 18.8688 128.269 19.0043C128.27 19.1398 128.237 19.2732 128.172 19.3925C128.108 19.5117 128.015 19.6129 127.901 19.6868C127.709 19.8056 127.507 19.908 127.297 19.9929C127.167 20.0419 127.052 20.1236 126.962 20.2302C126.872 20.3368 126.812 20.4647 126.786 20.6015C126.76 20.7384 126.77 20.8795 126.815 21.0114C126.859 21.1434 126.937 21.2615 127.041 21.3546C128.024 22.23 128.778 23.3326 129.238 24.5663C129.994 26.5342 130.13 28.6773 130.258 30.7818C131.04 27.7453 134.354 25.9578 137.485 25.7762C140.615 25.5946 143.668 26.6275 146.715 27.3699C153.35 28.9824 160.241 29.2475 166.981 28.1496C164.692 32.7424 166.623 38.2207 168.566 42.9701L174.854 40.2748C183.49 35.3998 177.475 56.0219 174.246 58.8529C180.838 61.1385 198.093 35.7713 192.542 26.1489C189.655 21.1435 191.705 14.6877 186.028 9.94047C183.245 7.01154 177.69 8.31335 174.854 5.87906C173.738 4.92096 175.439 2.35771 173.905 1.79909C173.395 1.61355 167.489 0.827512 167.405 1.01451Z" fill="#2D1A10"/>
<path d="M122.15 84.6584C117.248 106.424 104.674 157.242 91.9167 167.87C91.1077 168.634 90.1376 169.207 89.0779 169.546C44.2372 180.47 29.8693 152.605 29.8693 152.605C29.8693 152.605 41.8861 146.749 42.1909 135.303L66.4246 142.822L87.5497 95.282L90.6584 92.3823L90.6758 92.3649L122.15 84.6584Z" fill="#3F3D56"/>
<path d="M217.758 285.649C219.042 284.414 220.04 282.914 220.681 281.252C221.322 279.59 221.591 277.808 221.469 276.031C221.347 274.255 220.837 272.526 219.975 270.968C219.113 269.409 217.919 268.059 216.479 267.012L229.049 225.583L207.481 231.982L198.85 270.342C197.251 272.879 196.638 275.914 197.128 278.872C197.617 281.831 199.175 284.507 201.505 286.394C203.836 288.28 206.778 289.247 209.773 289.109C212.769 288.972 215.61 287.741 217.758 285.649Z" fill="#FFB8B8"/>
<path d="M206.253 97.6055L216.216 99.9231C216.216 99.9231 257.397 180.047 247.474 195.314C237.55 210.581 225.393 261.126 225.393 261.126C225.393 261.126 207.412 257.551 200.542 248.391L213.123 188.444L200.146 138.063L206.253 97.6055Z" fill="#163B30"/>
<path d="M17.2325 216.587L17.5903 87.5425C17.6005 84.9307 18.6463 82.4295 20.4983 80.5878C22.3503 78.746 24.8572 77.7141 27.469 77.7184L124.926 77.9886C127.538 77.9988 130.039 79.0446 131.881 80.8966C133.723 82.7486 134.755 85.2555 134.75 87.8673L134.393 216.912C134.382 219.524 133.337 222.025 131.485 223.867C129.633 225.708 127.126 226.74 124.514 226.736L27.0567 226.466C24.4448 226.456 21.9436 225.41 20.1019 223.558C18.2602 221.706 17.2282 219.199 17.2325 216.587Z" fill="#E6E6E6"/>
<path d="M24.8162 177.631L25.0462 94.6693C25.0557 92.2233 26.0351 89.8808 27.7695 88.156C29.504 86.4311 31.8518 85.4647 34.2979 85.4688L118.054 85.701C120.5 85.7104 122.843 86.6898 124.568 88.4243C126.293 90.1587 127.259 92.5066 127.255 94.9527L126.937 209.785C126.927 212.231 125.948 214.573 124.213 216.298C122.479 218.023 120.131 218.989 117.685 218.985L65.7994 218.842C54.9036 218.799 44.4696 214.436 36.7864 206.711C29.1032 198.985 24.7983 188.527 24.8162 177.631Z" fill="white"/>
<path d="M108.457 121.91H43.1487C42.1094 121.91 41.1128 121.498 40.3779 120.763C39.643 120.028 39.2302 119.031 39.2302 117.992C39.2302 116.953 39.643 115.956 40.3779 115.221C41.1128 114.486 42.1094 114.073 43.1487 114.073H108.457C109.496 114.073 110.493 114.486 111.228 115.221C111.963 115.956 112.376 116.953 112.376 117.992C112.376 119.031 111.963 120.028 111.228 120.763C110.493 121.498 109.496 121.91 108.457 121.91Z" fill="#163B30"/>
<path d="M57.5166 103.842H43.1487C42.1094 103.842 41.1128 103.429 40.3779 102.694C39.643 101.959 39.2302 100.962 39.2302 99.9231C39.2302 98.8839 39.643 97.8872 40.3779 97.1523C41.1128 96.4175 42.1094 96.0046 43.1487 96.0046H57.5166C58.5558 96.0046 59.5525 96.4175 60.2874 97.1523C61.0222 97.8872 61.4351 98.8839 61.4351 99.9231C61.4351 100.962 61.0222 101.959 60.2874 102.694C59.5525 103.429 58.5558 103.842 57.5166 103.842Z" fill="#163B30"/>
<path d="M108.457 139.979H43.1487C42.1094 139.979 41.1128 139.566 40.3779 138.831C39.643 138.097 39.2302 137.1 39.2302 136.061C39.2302 135.021 39.643 134.025 40.3779 133.29C41.1128 132.555 42.1094 132.142 43.1487 132.142H108.457C109.496 132.142 110.493 132.555 111.228 133.29C111.963 134.025 112.376 135.021 112.376 136.061C112.376 137.1 111.963 138.097 111.228 138.831C110.493 139.566 109.496 139.979 108.457 139.979Z" fill="#163B30"/>
<path d="M108.457 158.048H43.1487C42.1094 158.048 41.1128 157.635 40.3779 156.9C39.643 156.165 39.2302 155.168 39.2302 154.129C39.2302 153.09 39.643 152.093 40.3779 151.358C41.1128 150.624 42.1094 150.211 43.1487 150.211H108.457C109.496 150.211 110.493 150.624 111.228 151.358C111.963 152.093 112.376 153.09 112.376 154.129C112.376 155.168 111.963 156.165 111.228 156.9C110.493 157.635 109.496 158.048 108.457 158.048Z" fill="#163B30"/>
<path d="M103.173 205.658C111.784 205.658 118.765 198.677 118.765 190.066C118.765 181.455 111.784 174.474 103.173 174.474C94.5617 174.474 87.581 181.455 87.581 190.066C87.581 198.677 94.5617 205.658 103.173 205.658Z" fill="#163B30"/>
<path d="M101.046 198.181C100.776 198.181 100.511 198.118 100.27 197.998C100.029 197.877 99.8199 197.702 99.6584 197.487L95.4047 191.815C95.2677 191.633 95.168 191.426 95.1112 191.205C95.0545 190.984 95.0418 190.754 95.0739 190.529C95.106 190.303 95.1823 190.086 95.2983 189.89C95.4144 189.694 95.568 189.522 95.7504 189.386C95.9327 189.249 96.1403 189.149 96.3611 189.093C96.5819 189.036 96.8117 189.024 97.0373 189.056C97.263 189.089 97.48 189.165 97.676 189.282C97.872 189.398 98.0432 189.552 98.1797 189.734L100.963 193.444L108.11 182.723C108.236 182.533 108.398 182.37 108.588 182.242C108.777 182.115 108.99 182.026 109.213 181.981C109.437 181.936 109.668 181.935 109.891 181.979C110.115 182.023 110.328 182.111 110.518 182.238C110.708 182.364 110.871 182.527 110.998 182.717C111.125 182.907 111.213 183.12 111.257 183.343C111.302 183.567 111.302 183.798 111.257 184.022C111.212 184.245 111.123 184.458 110.996 184.648L102.489 197.409C102.335 197.639 102.128 197.83 101.885 197.964C101.643 198.098 101.371 198.173 101.094 198.18C101.078 198.181 101.062 198.181 101.046 198.181Z" fill="white"/>
<path d="M69.9252 47.6764C74.013 47.6764 77.3268 44.3626 77.3268 40.2748C77.3268 36.187 74.013 32.8732 69.9252 32.8732C65.8373 32.8732 62.5235 36.187 62.5235 40.2748C62.5235 44.3626 65.8373 47.6764 69.9252 47.6764Z" fill="#163B30"/>
<path d="M42.931 260.582C47.0188 260.582 50.3326 257.268 50.3326 253.18C50.3326 249.093 47.0188 245.779 42.931 245.779C38.8432 245.779 35.5294 249.093 35.5294 253.18C35.5294 257.268 38.8432 260.582 42.931 260.582Z" fill="#163B30"/>
<path d="M213.168 76.4121C217.256 76.4121 220.57 73.0983 220.57 69.0105C220.57 64.9227 217.256 61.6089 213.168 61.6089C209.081 61.6089 205.767 64.9227 205.767 69.0105C205.767 73.0983 209.081 76.4121 213.168 76.4121Z" fill="#163B30"/>
</g>
<defs>
<clipPath id="clip0_10_367">
<rect width="249.017" height="300" fill="white"/>
</clipPath>
</defs>
</svg>
