<svg width="344" height="285" viewBox="0 0 344 285" fill="none" xmlns="http://www.w3.org/2000/svg">
<g clip-path="url(#clip0_71_22)">
<path d="M239.804 284.572C239.037 284.571 238.283 284.372 237.616 283.993L111.1 212.466C110.072 211.883 109.317 210.916 109.001 209.777C108.684 208.638 108.833 207.419 109.413 206.39L209.06 30.137C209.348 29.6272 209.734 29.1791 210.195 28.8184C210.657 28.4577 211.184 28.1914 211.749 28.0347C212.313 27.8781 212.902 27.8341 213.484 27.9054C214.065 27.9767 214.626 28.1617 215.136 28.4501L341.651 99.9771C342.679 100.56 343.435 101.527 343.751 102.666C344.067 103.805 343.919 105.023 343.339 106.053L243.691 282.305C243.405 282.816 243.019 283.265 242.558 283.626C242.096 283.987 241.568 284.253 241.003 284.408C240.612 284.517 240.209 284.572 239.804 284.572Z" fill="#E6E6E6"/>
<path d="M205.532 37.0422L205.023 37.9415L338.732 113.536L339.241 112.636L205.532 37.0422Z" fill="white"/>
<path d="M196.38 53.2287L195.872 54.1279L329.581 129.722L330.089 128.823L196.38 53.2287Z" fill="white"/>
<path d="M187.229 69.4152L186.721 70.3144L320.43 145.909L320.938 145.009L187.229 69.4152Z" fill="white"/>
<path d="M178.078 85.6016L177.57 86.5009L311.279 162.095L311.787 161.196L178.078 85.6016Z" fill="white"/>
<path d="M168.927 101.788L168.418 102.687L302.127 178.282L302.636 177.382L168.927 101.788Z" fill="white"/>
<path d="M159.775 117.975L159.267 118.874L292.976 194.468L293.485 193.569L159.775 117.975Z" fill="white"/>
<path d="M150.624 134.161L150.116 135.06L283.825 210.654L284.333 209.755L150.624 134.161Z" fill="white"/>
<path d="M141.473 150.347L140.965 151.247L274.674 226.841L275.182 225.942L141.473 150.347Z" fill="white"/>
<path d="M132.322 166.534L131.813 167.433L265.522 243.027L266.031 242.128L132.322 166.534Z" fill="white"/>
<path d="M123.171 182.72L122.662 183.62L256.371 259.214L256.88 258.315L123.171 182.72Z" fill="white"/>
<path d="M114.019 198.907L113.511 199.806L247.22 275.4L247.728 274.501L114.019 198.907Z" fill="white"/>
<path d="M228.035 257.765C227.267 257.764 226.514 257.565 225.846 257.186L99.3312 185.658C98.3028 185.075 97.5477 184.108 97.2315 182.969C96.9152 181.83 97.0636 180.612 97.6442 179.582L197.291 3.32965C197.579 2.81983 197.965 2.37176 198.426 2.01104C198.887 1.65032 199.415 1.38402 199.98 1.22736C200.544 1.0707 201.133 1.02675 201.715 1.09801C202.296 1.16928 202.857 1.35437 203.367 1.6427L329.882 73.1698C330.91 73.7527 331.666 74.7197 331.982 75.8587C332.298 76.9977 332.15 78.2157 331.57 79.2455L231.922 255.498C231.635 256.009 231.25 256.458 230.789 256.819C230.327 257.179 229.799 257.445 229.234 257.601C228.843 257.709 228.44 257.764 228.035 257.765Z" fill="#F2F2F2"/>
<path d="M193.762 10.2349L193.254 11.1341L326.963 86.7283L327.472 85.8291L193.762 10.2349Z" fill="white"/>
<path d="M184.611 26.4213L184.103 27.3206L317.812 102.915L318.32 102.016L184.611 26.4213Z" fill="white"/>
<path d="M175.46 42.6078L174.952 43.507L308.661 119.101L309.169 118.202L175.46 42.6078Z" fill="white"/>
<path d="M166.309 58.7942L165.8 59.6935L299.509 135.288L300.018 134.388L166.309 58.7942Z" fill="white"/>
<path d="M157.158 74.9807L156.649 75.8799L290.358 151.474L290.867 150.575L157.158 74.9807Z" fill="white"/>
<path d="M148.006 91.1671L147.498 92.0663L281.207 167.661L281.715 166.761L148.006 91.1671Z" fill="white"/>
<path d="M138.855 107.354L138.347 108.253L272.056 183.847L272.564 182.948L138.855 107.354Z" fill="white"/>
<path d="M129.704 123.54L129.195 124.439L262.905 200.034L263.413 199.134L129.704 123.54Z" fill="white"/>
<path d="M120.553 139.726L120.044 140.626L253.753 216.22L254.262 215.321L120.553 139.726Z" fill="white"/>
<path d="M111.401 155.913L110.893 156.812L244.602 232.406L245.11 231.507L111.401 155.913Z" fill="white"/>
<path d="M102.25 172.099L101.742 172.999L235.451 248.593L235.959 247.694L102.25 172.099Z" fill="white"/>
<path d="M215.427 0H13.236V281.151H215.427C216.154 281.151 216.85 280.862 217.364 280.349C217.877 279.835 218.166 279.139 218.166 278.412V2.73848C218.166 2.01219 217.877 1.31567 217.364 0.802104C216.85 0.288543 216.154 1.56061e-05 215.427 0ZM24.6464 273.392C23.6534 273.392 22.6827 273.097 21.8571 272.546C21.0315 271.994 20.388 271.21 20.008 270.293C19.628 269.375 19.5285 268.366 19.7223 267.392C19.916 266.418 20.3941 265.523 21.0963 264.821C21.7984 264.119 22.693 263.641 23.6669 263.447C24.6408 263.253 25.6502 263.353 26.5676 263.733C27.485 264.113 28.2691 264.756 28.8208 265.582C29.3725 266.408 29.6669 267.378 29.6669 268.371C29.6669 269.031 29.537 269.683 29.2847 270.293C29.0324 270.902 28.6626 271.455 28.1964 271.921C27.7302 272.388 27.1768 272.757 26.5676 273.01C25.9585 273.262 25.3057 273.392 24.6464 273.392ZM24.6464 247.833C23.6534 247.833 22.6827 247.538 21.8571 246.987C21.0315 246.435 20.388 245.651 20.008 244.733C19.628 243.816 19.5286 242.806 19.7223 241.833C19.916 240.859 20.3942 239.964 21.0963 239.262C21.7984 238.56 22.693 238.082 23.6669 237.888C24.6408 237.694 25.6502 237.794 26.5676 238.174C27.485 238.554 28.2691 239.197 28.8208 240.023C29.3725 240.848 29.6669 241.819 29.6669 242.812C29.6669 243.471 29.5371 244.124 29.2848 244.733C29.0324 245.342 28.6626 245.896 28.1964 246.362C27.7302 246.828 27.1768 247.198 26.5676 247.45C25.9585 247.703 25.3057 247.833 24.6464 247.833ZM24.6464 222.273C23.6534 222.273 22.6827 221.979 21.8571 221.427C21.0315 220.876 20.388 220.092 20.008 219.174C19.628 218.257 19.5286 217.247 19.7223 216.273C19.916 215.3 20.3942 214.405 21.0963 213.703C21.7984 213.001 22.693 212.523 23.6669 212.329C24.6408 212.135 25.6502 212.235 26.5676 212.615C27.485 212.995 28.2691 213.638 28.8208 214.464C29.3725 215.289 29.6669 216.26 29.6669 217.253C29.6669 217.912 29.537 218.565 29.2847 219.174C29.0324 219.783 28.6626 220.337 28.1964 220.803C27.7302 221.269 27.1768 221.639 26.5676 221.891C25.9585 222.144 25.3057 222.273 24.6464 222.273ZM24.6464 196.714C23.6534 196.714 22.6827 196.42 21.8571 195.868C21.0315 195.317 20.388 194.532 20.008 193.615C19.628 192.698 19.5286 191.688 19.7223 190.714C19.916 189.74 20.3942 188.846 21.0963 188.144C21.7984 187.442 22.693 186.963 23.6669 186.77C24.6408 186.576 25.6502 186.675 26.5676 187.055C27.485 187.435 28.2691 188.079 28.8208 188.904C29.3725 189.73 29.6669 190.701 29.6669 191.694C29.6669 192.353 29.537 193.006 29.2847 193.615C29.0324 194.224 28.6626 194.778 28.1964 195.244C27.7302 195.71 27.1768 196.08 26.5676 196.332C25.9585 196.584 25.3057 196.714 24.6464 196.714ZM24.6464 171.155C23.6534 171.155 22.6827 170.861 21.8571 170.309C21.0315 169.757 20.388 168.973 20.008 168.056C19.628 167.138 19.5286 166.129 19.7223 165.155C19.916 164.181 20.3942 163.287 21.0963 162.585C21.7984 161.882 22.693 161.404 23.6669 161.21C24.6408 161.017 25.6502 161.116 26.5676 161.496C27.485 161.876 28.2691 162.52 28.8208 163.345C29.3725 164.171 29.6669 165.142 29.6669 166.135C29.6669 166.794 29.537 167.447 29.2847 168.056C29.0324 168.665 28.6626 169.218 28.1964 169.685C27.7302 170.151 27.1768 170.521 26.5676 170.773C25.9585 171.025 25.3057 171.155 24.6464 171.155ZM24.6464 145.596C23.6534 145.596 22.6827 145.302 21.8571 144.75C21.0315 144.198 20.388 143.414 20.008 142.497C19.628 141.579 19.5286 140.57 19.7223 139.596C19.916 138.622 20.3942 137.727 21.0963 137.025C21.7984 136.323 22.693 135.845 23.6669 135.651C24.6408 135.458 25.6502 135.557 26.5676 135.937C27.485 136.317 28.2691 136.961 28.8208 137.786C29.3725 138.612 29.6669 139.582 29.6669 140.575C29.6669 141.235 29.537 141.888 29.2847 142.497C29.0324 143.106 28.6626 143.659 28.1964 144.125C27.7302 144.592 27.1768 144.961 26.5676 145.214C25.9585 145.466 25.3057 145.596 24.6464 145.596ZM24.6464 120.037C23.6534 120.037 22.6827 119.742 21.8571 119.191C21.0315 118.639 20.388 117.855 20.008 116.938C19.628 116.02 19.5286 115.011 19.7223 114.037C19.916 113.063 20.3942 112.168 21.0963 111.466C21.7984 110.764 22.693 110.286 23.6669 110.092C24.6408 109.898 25.6502 109.998 26.5676 110.378C27.485 110.758 28.2691 111.401 28.8208 112.227C29.3725 113.053 29.6669 114.023 29.6669 115.016C29.6669 115.676 29.537 116.328 29.2847 116.938C29.0324 117.547 28.6626 118.1 28.1964 118.566C27.7302 119.033 27.1768 119.402 26.5676 119.655C25.9585 119.907 25.3057 120.037 24.6464 120.037ZM24.6464 94.4776C23.6534 94.4776 22.6827 94.1832 21.8571 93.6315C21.0315 93.0799 20.388 92.2958 20.008 91.3784C19.628 90.461 19.5286 89.4515 19.7223 88.4776C19.916 87.5037 20.3942 86.6091 21.0963 85.907C21.7984 85.2049 22.693 84.7267 23.6669 84.533C24.6408 84.3393 25.6502 84.4387 26.5676 84.8187C27.485 85.1987 28.2691 85.8422 28.8208 86.6678C29.3725 87.4934 29.6669 88.4641 29.6669 89.4571C29.6669 90.1164 29.537 90.7692 29.2847 91.3784C29.0324 91.9875 28.6626 92.541 28.1964 93.0072C27.7302 93.4734 27.1768 93.8432 26.5676 94.0955C25.9585 94.3478 25.3057 94.4776 24.6464 94.4776ZM24.6464 68.9185C23.6534 68.9185 22.6827 68.624 21.8571 68.0724C21.0315 67.5207 20.388 66.7366 20.008 65.8192C19.628 64.9018 19.5286 63.8923 19.7223 62.9184C19.916 61.9446 20.3942 61.05 21.0963 60.3478C21.7984 59.6457 22.693 59.1676 23.6669 58.9738C24.6408 58.7801 25.6502 58.8795 26.5676 59.2595C27.485 59.6395 28.2691 60.283 28.8208 61.1087C29.3725 61.9343 29.6669 62.9049 29.6669 63.8979C29.6669 64.5572 29.537 65.2101 29.2847 65.8192C29.0324 66.4283 28.6626 66.9818 28.1964 67.448C27.7302 67.9142 27.1768 68.284 26.5676 68.5363C25.9585 68.7886 25.3057 68.9185 24.6464 68.9185ZM24.6464 43.3593C23.6534 43.3593 22.6827 43.0649 21.8571 42.5132C21.0315 41.9615 20.388 41.1774 20.008 40.26C19.628 39.3426 19.5285 38.3332 19.7223 37.3593C19.916 36.3854 20.3941 35.4908 21.0963 34.7887C21.7984 34.0865 22.693 33.6084 23.6669 33.4147C24.6408 33.2209 25.6502 33.3204 26.5676 33.7003C27.485 34.0803 28.2691 34.7238 28.8208 35.5495C29.3725 36.3751 29.6669 37.3458 29.6669 38.3387C29.6669 38.998 29.537 39.6509 29.2847 40.26C29.0324 40.8692 28.6626 41.4226 28.1964 41.8888C27.7302 42.355 27.1768 42.7248 26.5676 42.9772C25.9585 43.2295 25.3057 43.3593 24.6464 43.3593ZM24.6464 17.8001C23.6534 17.8001 22.6827 17.5057 21.8571 16.954C21.0315 16.4024 20.388 15.6183 20.008 14.7009C19.628 13.7835 19.5285 12.774 19.7223 11.8001C19.916 10.8262 20.3941 9.93166 21.0963 9.22952C21.7984 8.52738 22.693 8.04922 23.6669 7.8555C24.6408 7.66178 25.6502 7.7612 26.5676 8.14119C27.485 8.52119 28.2691 9.16469 28.8208 9.99031C29.3725 10.8159 29.6669 11.7866 29.6669 12.7796C29.6669 13.4389 29.537 14.0917 29.2847 14.7009C29.0324 15.31 28.6626 15.8635 28.1964 16.3297C27.7302 16.7959 27.1768 17.1657 26.5676 17.418C25.9585 17.6703 25.3057 17.8001 24.6464 17.8001Z" fill="#DCF7EF"/>
<path d="M13.236 15.5181C11.8812 15.5181 0 15.4541 0 13.236C0 11.0179 11.8812 10.9539 13.236 10.9539V11.8667C6.23808 11.8667 1.70051 12.6501 0.969764 13.236C1.70051 13.8219 6.23808 14.6052 13.236 14.6052C20.2183 14.6052 24.7512 13.8252 25.4972 13.24C25.1422 12.9893 23.6919 12.4638 19.8018 12.1275L19.8804 11.2182C26.472 11.7879 26.472 12.84 26.472 13.236C26.472 15.4541 14.5907 15.5181 13.236 15.5181Z" fill="#2F2E41"/>
<path d="M13.236 40.6208C11.8812 40.6208 0 40.5569 0 38.3388C0 36.1206 11.8812 36.0567 13.236 36.0567V36.9695C6.23808 36.9695 1.70051 37.7529 0.969764 38.3388C1.70051 38.9247 6.23808 39.708 13.236 39.708C20.2183 39.708 24.7512 38.928 25.4972 38.3428C25.1422 38.0921 23.6919 37.5666 19.8018 37.2303L19.8804 36.321C26.472 36.8907 26.472 37.9428 26.472 38.3388C26.472 40.5569 14.5907 40.6208 13.236 40.6208Z" fill="#2F2E41"/>
<path d="M13.236 66.18C11.8812 66.18 0 66.116 0 63.8979C0 61.6798 11.8812 61.6158 13.236 61.6158V62.5287C6.23808 62.5287 1.70051 63.312 0.969764 63.8979C1.70051 64.4838 6.23808 65.2672 13.236 65.2672C20.2183 65.2672 24.7512 64.4871 25.4972 63.9019C25.1422 63.6512 23.6919 63.1257 19.8018 62.7894L19.8804 61.8802C26.472 62.4498 26.472 63.5019 26.472 63.8979C26.472 66.116 14.5907 66.18 13.236 66.18Z" fill="#2F2E41"/>
<path d="M13.236 91.7391C11.8812 91.7391 0 91.6752 0 89.4571C0 87.2389 11.8812 87.175 13.236 87.175V88.0878C6.23808 88.0878 1.70051 88.8712 0.969764 89.4571C1.70051 90.043 6.23808 90.8263 13.236 90.8263C20.2183 90.8263 24.7512 90.0463 25.4972 89.4611C25.1422 89.2104 23.6919 88.6849 19.8018 88.3486L19.8804 87.4393C26.472 88.009 26.472 89.0611 26.472 89.4571C26.472 91.6752 14.5907 91.7391 13.236 91.7391Z" fill="#2F2E41"/>
<path d="M13.236 117.298C11.8812 117.298 0 117.234 0 115.016C0 112.798 11.8812 112.734 13.236 112.734V113.647C6.23808 113.647 1.70051 114.43 0.969764 115.016C1.70051 115.602 6.23808 116.386 13.236 116.386C20.2183 116.386 24.7512 115.605 25.4972 115.02C25.1422 114.77 23.6919 114.244 19.8018 113.908L19.8804 112.999C26.472 113.568 26.472 114.62 26.472 115.016C26.472 117.234 14.5907 117.298 13.236 117.298Z" fill="#2F2E41"/>
<path d="M13.236 142.857C11.8812 142.857 0 142.794 0 140.575C0 138.357 11.8812 138.293 13.236 138.293V139.206C6.23808 139.206 1.70051 139.99 0.969764 140.575C1.70051 141.161 6.23808 141.945 13.236 141.945C20.2183 141.945 24.7512 141.165 25.4972 140.579C25.1422 140.329 23.6919 139.803 19.8018 139.467L19.8804 138.558C26.472 139.127 26.472 140.179 26.472 140.575C26.472 142.794 14.5907 142.857 13.236 142.857Z" fill="#2F2E41"/>
<path d="M13.236 168.417C11.8812 168.417 0 168.353 0 166.135C0 163.916 11.8812 163.852 13.236 163.852V164.765C6.23808 164.765 1.70051 165.549 0.969764 166.135C1.70051 166.72 6.23808 167.504 13.236 167.504C20.2183 167.504 24.7512 166.724 25.4972 166.139C25.1422 165.888 23.6919 165.362 19.8018 165.026L19.8804 164.117C26.472 164.686 26.472 165.739 26.472 166.135C26.472 168.353 14.5907 168.417 13.236 168.417Z" fill="#2F2E41"/>
<path d="M13.236 193.976C11.8812 193.976 0 193.912 0 191.694C0 189.476 11.8812 189.412 13.236 189.412V190.325C6.23808 190.325 1.70051 191.108 0.969764 191.694C1.70051 192.28 6.23808 193.063 13.236 193.063C20.2183 193.063 24.7512 192.283 25.4972 191.698C25.1422 191.447 23.6919 190.922 19.8018 190.585L19.8804 189.676C26.472 190.246 26.472 191.298 26.472 191.694C26.472 193.912 14.5907 193.976 13.236 193.976Z" fill="#2F2E41"/>
<path d="M13.236 219.535C11.8812 219.535 0 219.471 0 217.253C0 215.035 11.8812 214.971 13.236 214.971V215.884C6.23808 215.884 1.70051 216.667 0.969764 217.253C1.70051 217.839 6.23808 218.622 13.236 218.622C20.2183 218.622 24.7512 217.842 25.4972 217.257C25.1422 217.006 23.6919 216.481 19.8018 216.144L19.8804 215.235C26.472 215.805 26.472 216.857 26.472 217.253C26.472 219.471 14.5907 219.535 13.236 219.535Z" fill="#2F2E41"/>
<path d="M13.236 245.094C11.8812 245.094 0 245.03 0 242.812C0 240.594 11.8812 240.53 13.236 240.53V241.443C6.23808 241.443 1.70051 242.226 0.969764 242.812C1.70051 243.398 6.23808 244.181 13.236 244.181C20.2183 244.181 24.7512 243.401 25.4972 242.816C25.1422 242.565 23.6919 242.04 19.8018 241.704L19.8804 240.794C26.472 241.364 26.472 242.416 26.472 242.812C26.472 245.03 14.5907 245.094 13.236 245.094Z" fill="#2F2E41"/>
<path d="M13.236 270.653C11.8812 270.653 0 270.589 0 268.371C0 266.153 11.8812 266.089 13.236 266.089V267.002C6.23808 267.002 1.70051 267.785 0.969764 268.371C1.70051 268.957 6.23808 269.74 13.236 269.74C20.2183 269.74 24.7512 268.96 25.4972 268.375C25.1422 268.124 23.6919 267.599 19.8018 267.263L19.8804 266.353C26.472 266.923 26.472 267.975 26.472 268.371C26.472 270.589 14.5907 270.653 13.236 270.653Z" fill="#2F2E41"/>
<path d="M174.122 107.485H73.7108C72.9243 107.485 72.1702 107.172 71.6141 106.616C71.0579 106.059 70.745 105.305 70.7441 104.519V65.2672C70.745 64.4806 71.0579 63.7266 71.6141 63.1704C72.1702 62.6142 72.9243 62.3014 73.7108 62.3005H174.122C174.908 62.3014 175.662 62.6142 176.219 63.1704C176.775 63.7266 177.088 64.4806 177.089 65.2672V104.519C177.088 105.305 176.775 106.059 176.219 106.616C175.662 107.172 174.908 107.485 174.122 107.485Z" fill="white"/>
<path d="M136.696 75.7647H111.137C110.532 75.7647 109.951 75.5243 109.523 75.0963C109.095 74.6683 108.855 74.0879 108.855 73.4826C108.855 72.8774 109.095 72.2969 109.523 71.8689C109.951 71.441 110.532 71.2006 111.137 71.2006H136.696C137.301 71.2006 137.882 71.441 138.31 71.8689C138.738 72.2969 138.978 72.8774 138.978 73.4826C138.978 74.0879 138.738 74.6683 138.31 75.0963C137.882 75.5243 137.301 75.7647 136.696 75.7647Z" fill="#163B30"/>
<path d="M150.845 87.175H96.9879C96.3826 87.175 95.8022 86.9345 95.3742 86.5066C94.9462 86.0786 94.7058 85.4982 94.7058 84.8929C94.7058 84.2877 94.9462 83.7072 95.3742 83.2792C95.8022 82.8513 96.3826 82.6108 96.9879 82.6108H150.845C151.45 82.6108 152.03 82.8513 152.458 83.2792C152.886 83.7072 153.127 84.2877 153.127 84.8929C153.127 85.4982 152.886 86.0786 152.458 86.5066C152.03 86.9345 151.45 87.175 150.845 87.175Z" fill="#163B30"/>
<path d="M150.845 98.5854H96.9879C96.3826 98.5854 95.8022 98.3449 95.3742 97.917C94.9462 97.489 94.7058 96.9085 94.7058 96.3033C94.7058 95.698 94.9462 95.1176 95.3742 94.6896C95.8022 94.2617 96.3826 94.0212 96.9879 94.0212H150.845C151.45 94.0212 152.03 94.2617 152.458 94.6896C152.886 95.1176 153.127 95.698 153.127 96.3033C153.127 96.9085 152.886 97.489 152.458 97.917C152.03 98.3449 151.45 98.5854 150.845 98.5854Z" fill="#163B30"/>
</g>
<defs>
<clipPath id="clip0_71_22">
<rect width="344" height="285" fill="white"/>
</clipPath>
</defs>
</svg>
